<svg xmlns="http://www.w3.org/2000/svg" xmlns:xlink="http://www.w3.org/1999/xlink" width="700" height="475">
<!-- links -->
<line x1="50" y1="50" x2="350" y2="50" stroke="#762a83" stroke-width="3"/>
<line x1="50" y1="50" x2="350" y2="175" stroke="#762a83" stroke-width="3"/>
<!--<line x1="50" y1="50" x2="350" y2="300" stroke="#762a83" stroke-width="3"/>
  <line x1="50" y1="50" x2="350" y2="425" stroke="#762a83" stroke-width="3"/>-->
<line x1="50" y1="175" x2="350" y2="50" stroke="#762a83" stroke-width="3"/>
<line x1="50" y1="175" x2="350" y2="175" stroke="#762a83" stroke-width="3"/>
<!--<line x1="50" y1="175" x2="350" y2="300" stroke="#762a83" stroke-width="3"/>
  <line x1="50" y1="175" x2="350" y2="425" stroke="#762a83" stroke-width="3"/>-->
<line x1="50" y1="300" x2="350" y2="50" stroke="#762a83" stroke-width="3"/>
<line x1="50" y1="300" x2="350" y2="175" stroke="#762a83" stroke-width="3"/>
<!--<line x1="50" y1="300" x2="350" y2="300" stroke="#762a83" stroke-width="3"/>
  <line x1="50" y1="300" x2="350" y2="425" stroke="#762a83" stroke-width="3"/>-->
<line x1="50" y1="425" x2="350" y2="50" stroke="#762a83" stroke-width="3"/>
<line x1="50" y1="425" x2="350" y2="175" stroke="#762a83" stroke-width="3"/>
<line x1="50" y1="425" x2="350" y2="300" stroke="#762a83" stroke-width="3"/>
<line x1="50" y1="425" x2="350" y2="425" stroke="#762a83" stroke-width="3"/>

<!-- nodes -->
<g><ellipse fill="#e7d4e8" cx="50" cy="50" rx="8" ry="8" stroke="#762a83"/></g>
<g><ellipse fill="#e7d4e8" cx="50" cy="175" rx="8" ry="8" stroke="#762a83"/></g>
<g><ellipse fill="#e7d4e8" cx="50" cy="300" rx="8" ry="8" stroke="#762a83"/></g>
<g><ellipse fill="#e7d4e8" cx="50" cy="425" rx="8" ry="8" stroke="#762a83"/></g>
<g><ellipse fill="#e7d4e8" cx="350" cy="50" rx="8" ry="8" stroke="#762a83"/></g>
<g><ellipse fill="#e7d4e8" cx="350" cy="175" rx="8" ry="8" stroke="#762a83"/></g>
<g><ellipse fill="#e7d4e8" cx="350" cy="300" rx="8" ry="8" stroke="#762a83"/></g>
<g><ellipse fill="#e7d4e8" cx="350" cy="425" rx="8" ry="8" stroke="#762a83"/></g>

<text x="20" y="14" font-family="Verdana" font-size="16" stroke="#212121">Worker</text>
<text x="330" y="14" font-family="Verdana" font-size="16" stroke="#212121">Task</text>
<text x="46" y="54" font-family="Verdana" font-size="12" stroke="#212121">0</text>
<text x="46" y="179" font-family="Verdana" font-size="12" stroke="#212121">1</text>
<text x="46" y="304" font-family="Verdana" font-size="12" stroke="#212121">2</text>
<text x="46" y="429" font-family="Verdana" font-size="12" stroke="#212121">3</text>
<text x="346" y="54" font-family="Verdana" font-size="12" stroke="#212121">0</text>
<text x="346" y="179" font-family="Verdana" font-size="12" stroke="#212121">1</text>
<text x="346" y="304" font-family="Verdana" font-size="12" stroke="#212121">2</text>
<text x="346" y="429" font-family="Verdana" font-size="12" stroke="#212121">3</text>
</svg>
